# xmcd
#
# Track frame offsets:
#	150
#	19370
#	28137
#	42345
#	57942
#	77792
#	90315
#	103977
#	117025
#	128882
#	148287
#	161765
#	174112
#	188035
#	198827
#	210030
#	225784
#	237470
#
# Disc length: 3376
#
# Revision: 1
# Processed by: cddbd v1.5.1PL0 Copyright (c) Steve Scherf et al.
# Submitted via: EasyCDDAExtractor 4.5.0.1
# Normalized: r0:TDELIM( - )
#
DISCID=e80d2e12
DTITLE=Various Artist - The Love Box Vol.2 CD4
DYEAR=1900
DGENRE=Slow Rock
TTITLE0=The Buoys - Give Up Your Guns
TTITLE1=The Box Tops - The Letter
TTITLE2=Aaron Neville - Tell It Like It
TTITLE3=Luther Ingram - I Don`t Want To Be Right
TTITLE4=Jose Feliciano - Right Here Waiting
TTITLE5=Climax - Precious And Few
TTITLE6=Harold Melvin and The Blue Notes - Satisfaction Guaranteed
TTITLE7=B.J. Thomas - Raindrops Keep Falling On Your Head
TTITLE8=Wilson Pickett - Down To My Last Heartbreak
TTITLE9=Timi Yuro - I Can`t Stop Loving You
TTITLE10=Sandie Shaw - Every Time We Say Goodbye
TTITLE11=The Troggs - Anyway That You Want Me
TTITLE12=Freddy Fender - Baby I Want To Love You
TTITLE13=Phil Phillips and The Twilights - Sea Of Love
TTITLE14=The Cascades - Rhythm Of The Rain
TTITLE15=The Chi-Lites - Oh Girl
TTITLE16=Tony Clark - The Entertainer
TTITLE17=The Drifters - Save The Last Dance For Me
EXTD=
EXTT0=
EXTT1=
EXTT2=
EXTT3=
EXTT4=
EXTT5=
EXTT6=
EXTT7=
EXTT8=
EXTT9=
EXTT10=
EXTT11=
EXTT12=
EXTT13=
EXTT14=
EXTT15=
EXTT16=
EXTT17=
PLAYORDER=
